<?xml version="1.0" standalone="no"?>
<!DOCTYPE svg PUBLIC "-//W3C//DTD SVG 20010904//EN"
 "http://www.w3.org/TR/2001/REC-SVG-20010904/DTD/svg10.dtd">
<svg version="1.0" xmlns="http://www.w3.org/2000/svg"
 width="320.000000pt" height="320.000000pt" viewBox="0 0 320.000000 320.000000"
 preserveAspectRatio="xMidYMid meet">

<g transform="translate(0.000000,320.000000) scale(0.100000,-0.100000)"
fill="#000000" stroke="none">
<path d="M1139 2631 c-60 -33 -109 -95 -109 -139 0 -35 -3 -39 -63 -71 -67
-37 -166 -125 -198 -177 -15 -25 -29 -34 -62 -39 -132 -22 -241 -151 -263
-312 -4 -35 -1 -64 13 -105 20 -57 20 -58 0 -75 -39 -36 -51 -74 -52 -168 0
-107 14 -153 64 -208 33 -37 36 -44 33 -93 -10 -143 152 -281 287 -247 l40 11
21 -42 c56 -115 262 -154 382 -73 32 22 37 23 73 10 158 -55 432 -55 590 0 36
13 41 12 73 -10 120 -81 326 -42 382 73 l21 42 40 -11 c136 -34 296 105 287
249 -3 48 0 56 29 86 43 45 62 94 69 181 8 85 -12 160 -50 196 l-23 21 20 58
c55 165 -87 403 -248 414 -31 3 -42 10 -65 43 -42 61 -128 138 -197 176 -60
32 -63 36 -63 71 0 30 -8 47 -37 80 -52 57 -102 78 -188 78 -90 0 -167 -20
-271 -72 l-82 -40 -30 21 c-16 11 -65 35 -108 52 -66 27 -95 33 -179 36 -85 3
-105 0 -136 -16z m294 -102 c33 -17 84 -47 113 -66 l53 -35 53 35 c29 19 82
49 118 67 57 29 75 33 145 34 96 0 138 -16 143 -56 3 -23 -3 -30 -37 -47 -57
-30 -57 -38 2 -44 67 -8 203 -76 267 -134 74 -66 98 -154 64 -238 -4 -12 4 -7
20 13 62 72 120 77 200 17 66 -51 96 -107 96 -181 0 -100 -38 -153 -135 -191
-14 -5 -6 -8 30 -10 83 -5 95 -10 95 -41 0 -81 -61 -173 -129 -193 -51 -15
-136 -8 -136 11 0 11 11 14 48 11 79 -4 136 27 137 76 0 43 -82 69 -149 48
-24 -7 -26 -3 -36 67 -3 26 -17 63 -30 83 -14 19 -36 70 -50 113 -30 88 -62
146 -99 182 -40 36 -122 38 -262 6 -166 -38 -328 -51 -476 -37 -67 6 -172 23
-232 37 -140 32 -222 30 -262 -6 -37 -35 -68 -92 -100 -185 -16 -44 -38 -94
-50 -112 -11 -17 -26 -59 -33 -92 -13 -65 -13 -65 -78 -46 -21 7 -80 -15 -98
-35 -43 -47 33 -105 129 -98 40 2 51 0 51 -12 0 -12 -14 -15 -72 -14 -58 0
-78 5 -107 24 -45 31 -75 86 -83 149 -6 57 -4 58 92 64 36 2 44 5 30 10 -97
38 -135 91 -135 191 0 74 30 130 96 181 78 59 123 57 192 -9 l33 -31 -10 28
c-29 75 -1 159 75 225 63 56 195 121 261 129 59 6 59 14 2 43 -41 22 -53 56
-26 79 49 40 190 35 280 -10z m-119 -545 c218 -35 358 -35 576 1 249 41 290
32 346 -77 95 -188 90 -454 -13 -651 -68 -128 -210 -227 -403 -279 -121 -33
-319 -33 -440 0 -112 30 -233 90 -296 146 -132 117 -201 323 -183 547 12 150
76 296 142 324 46 20 88 18 271 -11z"/>
<path d="M1938 1972 c-31 -9 -70 -27 -87 -40 -50 -37 -82 -119 -33 -84 85 60
181 84 247 62 54 -18 119 -81 145 -142 43 -101 26 -257 -28 -250 -18 3 -22 -2
-22 -21 0 -25 36 -57 64 -57 51 0 74 201 37 333 -26 97 -62 168 -97 196 -22
17 -40 21 -98 20 -39 0 -97 -8 -128 -17z"/>
<path d="M1146 1886 c-85 -31 -156 -135 -156 -228 0 -45 5 -63 20 -78 32 -32
66 -21 114 37 30 36 68 47 121 37 54 -10 91 -54 115 -135 22 -75 37 -88 75
-71 33 15 56 64 62 132 7 75 -26 150 -94 215 -86 84 -182 117 -257 91z"/>
<path d="M1955 1891 c-88 -22 -191 -109 -231 -196 -29 -61 -31 -134 -5 -190
22 -49 43 -68 73 -63 19 2 27 16 46 76 28 86 64 127 121 137 54 9 78 0 133
-51 53 -49 69 -53 98 -24 15 15 20 33 20 73 0 99 -80 212 -167 236 -42 12 -45
12 -88 2z"/>
<path d="M1073 1456 c-24 -11 -34 -24 -43 -55 -38 -141 148 -326 380 -377 91
-20 272 -22 355 -5 135 28 229 76 310 157 65 65 95 125 95 190 0 68 -30 98
-98 98 -57 -1 -90 -17 -198 -100 -110 -84 -139 -98 -199 -97 -63 2 -87 1 -152
0 -57 -1 -120 31 -211 107 -106 87 -174 111 -239 82z"/>
<path d="M1257 778 c-31 -25 -39 -67 -20 -107 18 -35 20 -36 81 -39 l62 -3 0
44 c0 41 -2 45 -25 45 -20 0 -25 -6 -25 -24 0 -35 -47 -34 -56 1 -9 37 12 58
52 51 34 -7 52 12 31 33 -15 15 -79 14 -100 -1z"/>
<path d="M1400 710 l0 -80 54 0 c37 0 56 4 59 14 8 20 -2 26 -40 26 -18 0 -33
5 -33 10 0 6 16 10 35 10 28 0 35 4 35 20 0 15 -7 20 -29 20 -17 0 -33 5 -36
10 -4 6 8 10 29 10 29 0 36 4 36 20 0 18 -7 20 -55 20 l-55 0 0 -80z"/>
<path d="M1528 633 c-3 -141 -5 -158 -20 -161 -16 -3 -18 5 -18 57 0 59 -1 61
-25 61 -26 0 -26 -1 -23 -67 3 -64 5 -69 32 -82 20 -9 38 -11 60 -4 l31 9 10
131 10 132 28 -40 c16 -22 37 -39 48 -39 16 0 19 7 19 49 0 27 3 63 6 80 6 28
4 31 -19 31 -23 0 -26 -4 -29 -41 l-3 -41 -30 41 c-19 26 -38 41 -52 41 -22 0
-23 -2 -25 -157z"/>
<path d="M1710 771 c0 -13 8 -21 25 -23 l25 -3 -29 -44 c-39 -58 -32 -71 35
-71 47 0 54 3 54 19 0 14 -8 21 -30 23 l-30 3 31 47 c17 26 28 52 24 58 -3 5
-28 10 -56 10 -42 0 -49 -3 -49 -19z"/>
<path d="M1838 718 c2 -40 8 -77 12 -81 10 -11 100 -11 110 0 4 4 10 41 12 81
3 69 3 72 -19 72 -20 0 -22 -5 -25 -62 -3 -55 -5 -63 -23 -63 -18 0 -20 8 -23
63 -3 57 -5 62 -26 62 -22 0 -23 -2 -18 -72z"/>
<path d="M1262 589 c-32 -12 -38 -37 -18 -73 16 -27 16 -31 2 -42 -32 -23 -11
-53 24 -34 33 18 40 42 23 79 -13 26 -14 34 -4 41 23 14 0 39 -27 29z"/>
<path d="M1865 589 c-48 -27 -60 -88 -26 -130 25 -31 83 -32 113 -2 26 27 27
89 1 114 -24 24 -63 31 -88 18z m63 -71 c4 -34 -26 -54 -53 -34 -13 9 -16 20
-11 40 5 22 11 27 34 24 21 -2 28 -9 30 -30z"/>
<path d="M1320 569 c0 -15 5 -19 15 -15 12 4 15 -5 15 -54 0 -57 1 -60 25 -60
25 0 25 1 19 56 -6 51 -5 56 15 61 11 3 21 12 21 19 0 10 -15 14 -55 14 -49 0
-55 -2 -55 -21z"/>
<path d="M1600 531 c0 -33 -3 -66 -6 -75 -5 -13 3 -16 49 -16 48 0 58 4 76 26
46 59 7 124 -74 124 l-45 0 0 -59z m82 12 c22 -20 23 -37 2 -57 -29 -30 -44
-20 -44 29 0 49 11 56 42 28z"/>
<path d="M1758 515 c-3 -72 -2 -75 20 -75 21 0 22 4 22 75 0 67 -2 75 -19 75
-17 0 -20 -9 -23 -75z"/>
</g>
</svg>
